<mxfile host="app.diagrams.net" modified="2023-11-05T10:33:06.110Z" agent="Mozilla/5.0 (Windows NT 10.0; Win64; x64) AppleWebKit/537.36 (KHTML, like Gecko) Chrome/119.0.0.0 Safari/537.36" version="22.0.8" etag="Pwa9hszz7nESUBcysCg4" type="github">
  <diagram name="Pagina-1" id="Of-bGnzV4ERRJ4TqnUzD">
    <mxGraphModel>
      <root>
        <mxCell id="0" />
        <mxCell id="1" parent="0" />
      </root>
    </mxGraphModel>
  </diagram>
</mxfile>
